<?xml version="1.0" encoding="UTF-8" standalone="no"?>
<!DOCTYPE svg PUBLIC "-//W3C//DTD SVG 1.1//EN"
 "http://www.w3.org/Graphics/SVG/1.1/DTD/svg11.dtd">
<!-- Generated by graphviz version 2.38.0 (20140413.2041)
 -->
<!-- Title: classes Pages: 1 -->
<svg width="1712pt" height="548pt"
 viewBox="0.00 0.00 1711.50 548.00" xmlns="http://www.w3.org/2000/svg" xmlns:xlink="http://www.w3.org/1999/xlink">
<g id="graph0" class="graph" transform="scale(1 1) rotate(0) translate(4 544)">
<title>classes</title>
<polygon fill="white" stroke="none" points="-4,4 -4,-544 1707.5,-544 1707.5,4 -4,4"/>
<!-- ValuesMixin -->
<g id="node1" class="node"><title>ValuesMixin</title>
<polygon fill="#c69ee0" stroke="#c69ee0" points="1143.5,-540 1071.5,-540 1071.5,-504 1143.5,-504 1143.5,-540"/>
<text text-anchor="middle" x="1107.5" y="-519.5" font-family="Sans" font-size="10.00" fill="#000000">ValuesMixin</text>
</g>
<!-- SourceMixin -->
<g id="node2" class="node"><title>SourceMixin</title>
<polygon fill="#c69ee0" stroke="#c69ee0" points="1154.5,-396 1080.5,-396 1080.5,-360 1154.5,-360 1154.5,-396"/>
<text text-anchor="middle" x="1117.5" y="-375.5" font-family="Sans" font-size="10.00" fill="#000000">SourceMixin</text>
</g>
<!-- SharedMixin -->
<g id="node3" class="node"><title>SharedMixin</title>
<polygon fill="#c69ee0" stroke="#c69ee0" points="1290,-36 1215,-36 1215,-0 1290,-0 1290,-36"/>
<text text-anchor="middle" x="1252.5" y="-15.5" font-family="Sans" font-size="10.00" fill="#000000">SharedMixin</text>
</g>
<!-- EventsMixin -->
<g id="node4" class="node"><title>EventsMixin</title>
<polygon fill="#c69ee0" stroke="#c69ee0" points="516,-324 443,-324 443,-288 516,-288 516,-324"/>
<text text-anchor="middle" x="479.5" y="-303.5" font-family="Sans" font-size="10.00" fill="#000000">EventsMixin</text>
</g>
<!-- HoldMixin -->
<g id="node5" class="node"><title>HoldMixin</title>
<polygon fill="#c69ee0" stroke="#c69ee0" points="364.5,-252 302.5,-252 302.5,-216 364.5,-216 364.5,-252"/>
<text text-anchor="middle" x="333.5" y="-231.5" font-family="Sans" font-size="10.00" fill="#000000">HoldMixin</text>
</g>
<!-- Device -->
<g id="node6" class="node"><title>Device</title>
<polygon fill="#9ec6e0" stroke="#9ec6e0" points="1134.5,-468 1080.5,-468 1080.5,-432 1134.5,-432 1134.5,-468"/>
<text text-anchor="middle" x="1107.5" y="-447.5" font-family="Sans" font-size="10.00" fill="#000000">Device</text>
</g>
<!-- Device&#45;&gt;ValuesMixin -->
<g id="edge2" class="edge"><title>Device&#45;&gt;ValuesMixin</title>
<path fill="none" stroke="black" d="M1107.5,-468.303C1107.5,-476.017 1107.5,-485.288 1107.5,-493.888"/>
<polygon fill="black" stroke="black" points="1104,-493.896 1107.5,-503.896 1111,-493.896 1104,-493.896"/>
</g>
<!-- GPIODevice -->
<g id="node7" class="node"><title>GPIODevice</title>
<polygon fill="#9ec6e0" stroke="#9ec6e0" points="722.5,-396 650.5,-396 650.5,-360 722.5,-360 722.5,-396"/>
<text text-anchor="middle" x="686.5" y="-375.5" font-family="Sans" font-size="10.00" fill="#000000">GPIODevice</text>
</g>
<!-- GPIODevice&#45;&gt;Device -->
<g id="edge1" class="edge"><title>GPIODevice&#45;&gt;Device</title>
<path fill="none" stroke="black" d="M722.759,-385.029C802.07,-398.216 990.259,-429.506 1070.37,-442.826"/>
<polygon fill="black" stroke="black" points="1070.04,-446.32 1080.48,-444.508 1071.19,-439.415 1070.04,-446.32"/>
</g>
<!-- SmoothedInputDevice -->
<g id="node8" class="node"><title>SmoothedInputDevice</title>
<polygon fill="#9ec6e0" stroke="#9ec6e0" points="284,-252 161,-252 161,-216 284,-216 284,-252"/>
<text text-anchor="middle" x="222.5" y="-231.5" font-family="Sans" font-size="10.00" fill="#000000">SmoothedInputDevice</text>
</g>
<!-- SmoothedInputDevice&#45;&gt;EventsMixin -->
<g id="edge7" class="edge"><title>SmoothedInputDevice&#45;&gt;EventsMixin</title>
<path fill="none" stroke="black" d="M284.246,-250.15C335.003,-262.656 402.362,-279.389 433.308,-288.219"/>
<polygon fill="black" stroke="black" points="432.381,-291.595 442.964,-291.093 434.377,-284.886 432.381,-291.595"/>
</g>
<!-- InputDevice -->
<g id="node16" class="node"><title>InputDevice</title>
<polygon fill="#2980b9" stroke="#2980b9" points="425,-324 352,-324 352,-288 425,-288 425,-324"/>
<text text-anchor="middle" x="388.5" y="-303.5" font-family="Sans" font-size="10.00" fill="#ffffff">InputDevice</text>
</g>
<!-- SmoothedInputDevice&#45;&gt;InputDevice -->
<g id="edge6" class="edge"><title>SmoothedInputDevice&#45;&gt;InputDevice</title>
<path fill="none" stroke="black" d="M263.108,-252.124C287.195,-262.281 317.792,-275.183 342.732,-285.7"/>
<polygon fill="black" stroke="black" points="341.414,-288.943 351.988,-289.603 344.134,-282.493 341.414,-288.943"/>
</g>
<!-- AnalogInputDevice -->
<g id="node9" class="node"><title>AnalogInputDevice</title>
<polygon fill="#9ec6e0" stroke="#9ec6e0" points="1496.5,-324 1390.5,-324 1390.5,-288 1496.5,-288 1496.5,-324"/>
<text text-anchor="middle" x="1443.5" y="-303.5" font-family="Sans" font-size="10.00" fill="#000000">AnalogInputDevice</text>
</g>
<!-- SPIDevice -->
<g id="node30" class="node"><title>SPIDevice</title>
<polygon fill="#2980b9" stroke="#2980b9" points="1423.5,-396 1359.5,-396 1359.5,-360 1423.5,-360 1423.5,-396"/>
<text text-anchor="middle" x="1391.5" y="-375.5" font-family="Sans" font-size="10.00" fill="#ffffff">SPIDevice</text>
</g>
<!-- AnalogInputDevice&#45;&gt;SPIDevice -->
<g id="edge24" class="edge"><title>AnalogInputDevice&#45;&gt;SPIDevice</title>
<path fill="none" stroke="black" d="M1430.65,-324.303C1424.47,-332.611 1416.96,-342.723 1410.18,-351.859"/>
<polygon fill="black" stroke="black" points="1407.36,-349.781 1404.21,-359.896 1412.98,-353.955 1407.36,-349.781"/>
</g>
<!-- MCP3xxx -->
<g id="node10" class="node"><title>MCP3xxx</title>
<polygon fill="#9ec6e0" stroke="#9ec6e0" points="1502,-252 1443,-252 1443,-216 1502,-216 1502,-252"/>
<text text-anchor="middle" x="1472.5" y="-231.5" font-family="Sans" font-size="10.00" fill="#000000">MCP3xxx</text>
</g>
<!-- MCP3xxx&#45;&gt;AnalogInputDevice -->
<g id="edge25" class="edge"><title>MCP3xxx&#45;&gt;AnalogInputDevice</title>
<path fill="none" stroke="black" d="M1465.33,-252.303C1462.07,-260.187 1458.13,-269.696 1454.5,-278.454"/>
<polygon fill="black" stroke="black" points="1451.18,-277.317 1450.59,-287.896 1457.65,-279.997 1451.18,-277.317"/>
</g>
<!-- MCP33xx -->
<g id="node11" class="node"><title>MCP33xx</title>
<polygon fill="#9ec6e0" stroke="#9ec6e0" points="1463.5,-180 1403.5,-180 1403.5,-144 1463.5,-144 1463.5,-180"/>
<text text-anchor="middle" x="1433.5" y="-159.5" font-family="Sans" font-size="10.00" fill="#000000">MCP33xx</text>
</g>
<!-- MCP33xx&#45;&gt;MCP3xxx -->
<g id="edge26" class="edge"><title>MCP33xx&#45;&gt;MCP3xxx</title>
<path fill="none" stroke="black" d="M1443.14,-180.303C1447.63,-188.356 1453.06,-198.106 1458.02,-207.018"/>
<polygon fill="black" stroke="black" points="1455.05,-208.863 1462.97,-215.896 1461.16,-205.456 1455.05,-208.863"/>
</g>
<!-- CompositeDevice -->
<g id="node12" class="node"><title>CompositeDevice</title>
<polygon fill="#9ec6e0" stroke="#9ec6e0" points="1059,-396 958,-396 958,-360 1059,-360 1059,-396"/>
<text text-anchor="middle" x="1008.5" y="-375.5" font-family="Sans" font-size="10.00" fill="#000000">CompositeDevice</text>
</g>
<!-- CompositeDevice&#45;&gt;Device -->
<g id="edge34" class="edge"><title>CompositeDevice&#45;&gt;Device</title>
<path fill="none" stroke="black" d="M1032.72,-396.124C1045.42,-405.107 1061.16,-416.237 1074.92,-425.966"/>
<polygon fill="black" stroke="black" points="1073,-428.895 1083.19,-431.81 1077.04,-423.179 1073,-428.895"/>
</g>
<!-- CompositeOutputDevice -->
<g id="node13" class="node"><title>CompositeOutputDevice</title>
<polygon fill="#9ec6e0" stroke="#9ec6e0" points="1186.5,-324 1052.5,-324 1052.5,-288 1186.5,-288 1186.5,-324"/>
<text text-anchor="middle" x="1119.5" y="-303.5" font-family="Sans" font-size="10.00" fill="#000000">CompositeOutputDevice</text>
</g>
<!-- CompositeOutputDevice&#45;&gt;SourceMixin -->
<g id="edge36" class="edge"><title>CompositeOutputDevice&#45;&gt;SourceMixin</title>
<path fill="none" stroke="black" d="M1119.01,-324.303C1118.79,-332.017 1118.52,-341.288 1118.27,-349.888"/>
<polygon fill="black" stroke="black" points="1114.78,-349.8 1117.99,-359.896 1121.77,-350 1114.78,-349.8"/>
</g>
<!-- CompositeOutputDevice&#45;&gt;CompositeDevice -->
<g id="edge35" class="edge"><title>CompositeOutputDevice&#45;&gt;CompositeDevice</title>
<path fill="none" stroke="black" d="M1092.35,-324.124C1077.97,-333.192 1060.12,-344.448 1044.59,-354.241"/>
<polygon fill="black" stroke="black" points="1042.35,-351.516 1035.76,-359.81 1046.08,-357.436 1042.35,-351.516"/>
</g>
<!-- LEDCollection -->
<g id="node14" class="node"><title>LEDCollection</title>
<polygon fill="#9ec6e0" stroke="#9ec6e0" points="1160.5,-252 1078.5,-252 1078.5,-216 1160.5,-216 1160.5,-252"/>
<text text-anchor="middle" x="1119.5" y="-231.5" font-family="Sans" font-size="10.00" fill="#000000">LEDCollection</text>
</g>
<!-- LEDCollection&#45;&gt;CompositeOutputDevice -->
<g id="edge37" class="edge"><title>LEDCollection&#45;&gt;CompositeOutputDevice</title>
<path fill="none" stroke="black" d="M1119.5,-252.303C1119.5,-260.017 1119.5,-269.288 1119.5,-277.888"/>
<polygon fill="black" stroke="black" points="1116,-277.896 1119.5,-287.896 1123,-277.896 1116,-277.896"/>
</g>
<!-- InternalDevice -->
<g id="node15" class="node"><title>InternalDevice</title>
<polygon fill="#9ec6e0" stroke="#9ec6e0" points="842,-252 757,-252 757,-216 842,-216 842,-252"/>
<text text-anchor="middle" x="799.5" y="-231.5" font-family="Sans" font-size="10.00" fill="#000000">InternalDevice</text>
</g>
<!-- InternalDevice&#45;&gt;EventsMixin -->
<g id="edge58" class="edge"><title>InternalDevice&#45;&gt;EventsMixin</title>
<path fill="none" stroke="black" d="M756.773,-249.421C753.647,-250.337 750.532,-251.208 747.5,-252 670.765,-272.053 579.926,-288.522 526.151,-297.534"/>
<polygon fill="black" stroke="black" points="525.521,-294.091 516.23,-299.182 526.668,-300.996 525.521,-294.091"/>
</g>
<!-- InternalDevice&#45;&gt;Device -->
<g id="edge57" class="edge"><title>InternalDevice&#45;&gt;Device</title>
<path fill="none" stroke="black" d="M810.908,-252.213C833.412,-284.88 886.734,-356.155 948.5,-396 986.392,-420.444 1036.67,-434.715 1070.46,-442.173"/>
<polygon fill="black" stroke="black" points="1069.87,-445.626 1080.38,-444.272 1071.32,-438.778 1069.87,-445.626"/>
</g>
<!-- InputDevice&#45;&gt;GPIODevice -->
<g id="edge3" class="edge"><title>InputDevice&#45;&gt;GPIODevice</title>
<path fill="none" stroke="black" d="M425.18,-321.386C427.979,-322.321 430.774,-323.205 433.5,-324 504.637,-344.753 589.265,-360.784 640.383,-369.551"/>
<polygon fill="black" stroke="black" points="640.012,-373.038 650.456,-371.259 641.182,-366.136 640.012,-373.038"/>
</g>
<!-- DigitalInputDevice -->
<g id="node17" class="node"><title>DigitalInputDevice</title>
<polygon fill="#2980b9" stroke="#2980b9" points="486,-252 383,-252 383,-216 486,-216 486,-252"/>
<text text-anchor="middle" x="434.5" y="-231.5" font-family="Sans" font-size="10.00" fill="#ffffff">DigitalInputDevice</text>
</g>
<!-- DigitalInputDevice&#45;&gt;EventsMixin -->
<g id="edge5" class="edge"><title>DigitalInputDevice&#45;&gt;EventsMixin</title>
<path fill="none" stroke="black" d="M445.624,-252.303C450.855,-260.441 457.2,-270.311 462.978,-279.299"/>
<polygon fill="black" stroke="black" points="460.153,-281.377 468.504,-287.896 466.041,-277.591 460.153,-281.377"/>
</g>
<!-- DigitalInputDevice&#45;&gt;InputDevice -->
<g id="edge4" class="edge"><title>DigitalInputDevice&#45;&gt;InputDevice</title>
<path fill="none" stroke="black" d="M423.129,-252.303C417.782,-260.441 411.296,-270.311 405.389,-279.299"/>
<polygon fill="black" stroke="black" points="402.307,-277.616 399.74,-287.896 408.157,-281.461 402.307,-277.616"/>
</g>
<!-- Button -->
<g id="node18" class="node"><title>Button</title>
<polygon fill="#2980b9" stroke="#2980b9" points="456.5,-180 402.5,-180 402.5,-144 456.5,-144 456.5,-180"/>
<text text-anchor="middle" x="429.5" y="-159.5" font-family="Sans" font-size="10.00" fill="#ffffff">Button</text>
</g>
<!-- Button&#45;&gt;HoldMixin -->
<g id="edge9" class="edge"><title>Button&#45;&gt;HoldMixin</title>
<path fill="none" stroke="black" d="M405.77,-180.303C393.563,-189.204 378.515,-200.177 365.316,-209.801"/>
<polygon fill="black" stroke="black" points="362.975,-207.176 356.957,-215.896 367.1,-212.832 362.975,-207.176"/>
</g>
<!-- Button&#45;&gt;DigitalInputDevice -->
<g id="edge8" class="edge"><title>Button&#45;&gt;DigitalInputDevice</title>
<path fill="none" stroke="black" d="M430.736,-180.303C431.287,-188.017 431.949,-197.288 432.563,-205.888"/>
<polygon fill="black" stroke="black" points="429.075,-206.17 433.278,-215.896 436.057,-205.672 429.075,-206.17"/>
</g>
<!-- MotionSensor -->
<g id="node19" class="node"><title>MotionSensor</title>
<polygon fill="#2980b9" stroke="#2980b9" points="83,-180 0,-180 0,-144 83,-144 83,-180"/>
<text text-anchor="middle" x="41.5" y="-159.5" font-family="Sans" font-size="10.00" fill="#ffffff">MotionSensor</text>
</g>
<!-- MotionSensor&#45;&gt;SmoothedInputDevice -->
<g id="edge10" class="edge"><title>MotionSensor&#45;&gt;SmoothedInputDevice</title>
<path fill="none" stroke="black" d="M83.0251,-179.059C108.513,-188.917 141.417,-201.642 168.865,-212.257"/>
<polygon fill="black" stroke="black" points="167.735,-215.573 178.325,-215.916 170.26,-209.044 167.735,-215.573"/>
</g>
<!-- LightSensor -->
<g id="node20" class="node"><title>LightSensor</title>
<polygon fill="#2980b9" stroke="#2980b9" points="175.5,-180 101.5,-180 101.5,-144 175.5,-144 175.5,-180"/>
<text text-anchor="middle" x="138.5" y="-159.5" font-family="Sans" font-size="10.00" fill="#ffffff">LightSensor</text>
</g>
<!-- LightSensor&#45;&gt;SmoothedInputDevice -->
<g id="edge11" class="edge"><title>LightSensor&#45;&gt;SmoothedInputDevice</title>
<path fill="none" stroke="black" d="M159.264,-180.303C169.741,-189.035 182.611,-199.76 194,-209.25"/>
<polygon fill="black" stroke="black" points="192.052,-212.183 201.975,-215.896 196.533,-206.805 192.052,-212.183"/>
</g>
<!-- LineSensor -->
<g id="node21" class="node"><title>LineSensor</title>
<polygon fill="#2980b9" stroke="#2980b9" points="263.5,-180 193.5,-180 193.5,-144 263.5,-144 263.5,-180"/>
<text text-anchor="middle" x="228.5" y="-159.5" font-family="Sans" font-size="10.00" fill="#ffffff">LineSensor</text>
</g>
<!-- LineSensor&#45;&gt;SmoothedInputDevice -->
<g id="edge12" class="edge"><title>LineSensor&#45;&gt;SmoothedInputDevice</title>
<path fill="none" stroke="black" d="M227.017,-180.303C226.356,-188.017 225.561,-197.288 224.824,-205.888"/>
<polygon fill="black" stroke="black" points="221.333,-205.633 223.966,-215.896 228.307,-206.231 221.333,-205.633"/>
</g>
<!-- DistanceSensor -->
<g id="node22" class="node"><title>DistanceSensor</title>
<polygon fill="#2980b9" stroke="#2980b9" points="373.5,-180 281.5,-180 281.5,-144 373.5,-144 373.5,-180"/>
<text text-anchor="middle" x="327.5" y="-159.5" font-family="Sans" font-size="10.00" fill="#ffffff">DistanceSensor</text>
</g>
<!-- DistanceSensor&#45;&gt;SmoothedInputDevice -->
<g id="edge13" class="edge"><title>DistanceSensor&#45;&gt;SmoothedInputDevice</title>
<path fill="none" stroke="black" d="M301.814,-180.124C288.212,-189.192 271.328,-200.448 256.639,-210.241"/>
<polygon fill="black" stroke="black" points="254.664,-207.351 248.285,-215.81 258.547,-213.175 254.664,-207.351"/>
</g>
<!-- OutputDevice -->
<g id="node23" class="node"><title>OutputDevice</title>
<polygon fill="#2980b9" stroke="#2980b9" points="727.5,-324 645.5,-324 645.5,-288 727.5,-288 727.5,-324"/>
<text text-anchor="middle" x="686.5" y="-303.5" font-family="Sans" font-size="10.00" fill="#ffffff">OutputDevice</text>
</g>
<!-- OutputDevice&#45;&gt;SourceMixin -->
<g id="edge15" class="edge"><title>OutputDevice&#45;&gt;SourceMixin</title>
<path fill="none" stroke="black" d="M727.569,-310.144C797.915,-316.097 945.665,-331.09 1067.5,-360 1068.55,-360.249 1069.61,-360.51 1070.67,-360.783"/>
<polygon fill="black" stroke="black" points="1069.75,-364.16 1080.32,-363.498 1071.64,-357.421 1069.75,-364.16"/>
</g>
<!-- OutputDevice&#45;&gt;GPIODevice -->
<g id="edge14" class="edge"><title>OutputDevice&#45;&gt;GPIODevice</title>
<path fill="none" stroke="black" d="M686.5,-324.303C686.5,-332.017 686.5,-341.288 686.5,-349.888"/>
<polygon fill="black" stroke="black" points="683,-349.896 686.5,-359.896 690,-349.896 683,-349.896"/>
</g>
<!-- DigitalOutputDevice -->
<g id="node24" class="node"><title>DigitalOutputDevice</title>
<polygon fill="#2980b9" stroke="#2980b9" points="616.5,-252 504.5,-252 504.5,-216 616.5,-216 616.5,-252"/>
<text text-anchor="middle" x="560.5" y="-231.5" font-family="Sans" font-size="10.00" fill="#ffffff">DigitalOutputDevice</text>
</g>
<!-- DigitalOutputDevice&#45;&gt;OutputDevice -->
<g id="edge16" class="edge"><title>DigitalOutputDevice&#45;&gt;OutputDevice</title>
<path fill="none" stroke="black" d="M591.323,-252.124C607.95,-261.361 628.665,-272.869 646.519,-282.788"/>
<polygon fill="black" stroke="black" points="645.117,-286.013 655.558,-287.81 648.517,-279.894 645.117,-286.013"/>
</g>
<!-- LED -->
<g id="node25" class="node"><title>LED</title>
<polygon fill="#2980b9" stroke="#2980b9" points="617.5,-180 563.5,-180 563.5,-144 617.5,-144 617.5,-180"/>
<text text-anchor="middle" x="590.5" y="-159.5" font-family="Sans" font-size="10.00" fill="#ffffff">LED</text>
</g>
<!-- LED&#45;&gt;DigitalOutputDevice -->
<g id="edge17" class="edge"><title>LED&#45;&gt;DigitalOutputDevice</title>
<path fill="none" stroke="black" d="M583.084,-180.303C579.706,-188.187 575.63,-197.696 571.877,-206.454"/>
<polygon fill="black" stroke="black" points="568.553,-205.325 567.83,-215.896 574.987,-208.083 568.553,-205.325"/>
</g>
<!-- Buzzer -->
<g id="node26" class="node"><title>Buzzer</title>
<polygon fill="#2980b9" stroke="#2980b9" points="545.5,-180 491.5,-180 491.5,-144 545.5,-144 545.5,-180"/>
<text text-anchor="middle" x="518.5" y="-159.5" font-family="Sans" font-size="10.00" fill="#ffffff">Buzzer</text>
</g>
<!-- Buzzer&#45;&gt;DigitalOutputDevice -->
<g id="edge18" class="edge"><title>Buzzer&#45;&gt;DigitalOutputDevice</title>
<path fill="none" stroke="black" d="M528.882,-180.303C533.765,-188.441 539.687,-198.311 545.079,-207.299"/>
<polygon fill="black" stroke="black" points="542.091,-209.121 550.237,-215.896 548.094,-205.52 542.091,-209.121"/>
</g>
<!-- PWMOutputDevice -->
<g id="node27" class="node"><title>PWMOutputDevice</title>
<polygon fill="#2980b9" stroke="#2980b9" points="738.5,-252 634.5,-252 634.5,-216 738.5,-216 738.5,-252"/>
<text text-anchor="middle" x="686.5" y="-231.5" font-family="Sans" font-size="10.00" fill="#ffffff">PWMOutputDevice</text>
</g>
<!-- PWMOutputDevice&#45;&gt;OutputDevice -->
<g id="edge19" class="edge"><title>PWMOutputDevice&#45;&gt;OutputDevice</title>
<path fill="none" stroke="black" d="M686.5,-252.303C686.5,-260.017 686.5,-269.288 686.5,-277.888"/>
<polygon fill="black" stroke="black" points="683,-277.896 686.5,-287.896 690,-277.896 683,-277.896"/>
</g>
<!-- PWMLED -->
<g id="node28" class="node"><title>PWMLED</title>
<polygon fill="#2980b9" stroke="#2980b9" points="715.5,-180 657.5,-180 657.5,-144 715.5,-144 715.5,-180"/>
<text text-anchor="middle" x="686.5" y="-159.5" font-family="Sans" font-size="10.00" fill="#ffffff">PWMLED</text>
</g>
<!-- PWMLED&#45;&gt;PWMOutputDevice -->
<g id="edge20" class="edge"><title>PWMLED&#45;&gt;PWMOutputDevice</title>
<path fill="none" stroke="black" d="M686.5,-180.303C686.5,-188.017 686.5,-197.288 686.5,-205.888"/>
<polygon fill="black" stroke="black" points="683,-205.896 686.5,-215.896 690,-205.896 683,-205.896"/>
</g>
<!-- RGBLED -->
<g id="node29" class="node"><title>RGBLED</title>
<polygon fill="#2980b9" stroke="#2980b9" points="1260.5,-324 1204.5,-324 1204.5,-288 1260.5,-288 1260.5,-324"/>
<text text-anchor="middle" x="1232.5" y="-303.5" font-family="Sans" font-size="10.00" fill="#ffffff">RGBLED</text>
</g>
<!-- RGBLED&#45;&gt;SourceMixin -->
<g id="edge22" class="edge"><title>RGBLED&#45;&gt;SourceMixin</title>
<path fill="none" stroke="black" d="M1204.37,-324.124C1189.33,-333.276 1170.63,-344.658 1154.44,-354.515"/>
<polygon fill="black" stroke="black" points="1152.46,-351.621 1145.74,-359.81 1156.1,-357.6 1152.46,-351.621"/>
</g>
<!-- RGBLED&#45;&gt;Device -->
<g id="edge21" class="edge"><title>RGBLED&#45;&gt;Device</title>
<path fill="none" stroke="black" d="M1220.51,-324.016C1207.29,-342.397 1185.03,-372.24 1163.5,-396 1154.58,-405.842 1144.16,-416.016 1134.75,-424.787"/>
<polygon fill="black" stroke="black" points="1132.13,-422.443 1127.13,-431.786 1136.86,-427.597 1132.13,-422.443"/>
</g>
<!-- SPIDevice&#45;&gt;Device -->
<g id="edge23" class="edge"><title>SPIDevice&#45;&gt;Device</title>
<path fill="none" stroke="black" d="M1359.47,-386.894C1306.49,-399.954 1200.86,-425.989 1144.67,-439.839"/>
<polygon fill="black" stroke="black" points="1143.65,-436.486 1134.78,-442.277 1145.32,-443.282 1143.65,-436.486"/>
</g>
<!-- MCP3004 -->
<g id="node31" class="node"><title>MCP3004</title>
<polygon fill="#2980b9" stroke="#2980b9" points="1543.5,-180 1481.5,-180 1481.5,-144 1543.5,-144 1543.5,-180"/>
<text text-anchor="middle" x="1512.5" y="-159.5" font-family="Sans" font-size="10.00" fill="#ffffff">MCP3004</text>
</g>
<!-- MCP3004&#45;&gt;MCP3xxx -->
<g id="edge27" class="edge"><title>MCP3004&#45;&gt;MCP3xxx</title>
<path fill="none" stroke="black" d="M1502.61,-180.303C1498.01,-188.356 1492.44,-198.106 1487.35,-207.018"/>
<polygon fill="black" stroke="black" points="1484.2,-205.477 1482.27,-215.896 1490.27,-208.95 1484.2,-205.477"/>
</g>
<!-- MCP3008 -->
<g id="node32" class="node"><title>MCP3008</title>
<polygon fill="#2980b9" stroke="#2980b9" points="1623.5,-180 1561.5,-180 1561.5,-144 1623.5,-144 1623.5,-180"/>
<text text-anchor="middle" x="1592.5" y="-159.5" font-family="Sans" font-size="10.00" fill="#ffffff">MCP3008</text>
</g>
<!-- MCP3008&#45;&gt;MCP3xxx -->
<g id="edge28" class="edge"><title>MCP3008&#45;&gt;MCP3xxx</title>
<path fill="none" stroke="black" d="M1563.14,-180.124C1547.45,-189.276 1527.94,-200.658 1511.05,-210.515"/>
<polygon fill="black" stroke="black" points="1508.84,-207.748 1501.97,-215.81 1512.37,-213.795 1508.84,-207.748"/>
</g>
<!-- MCP3204 -->
<g id="node33" class="node"><title>MCP3204</title>
<polygon fill="#2980b9" stroke="#2980b9" points="1703.5,-180 1641.5,-180 1641.5,-144 1703.5,-144 1703.5,-180"/>
<text text-anchor="middle" x="1672.5" y="-159.5" font-family="Sans" font-size="10.00" fill="#ffffff">MCP3204</text>
</g>
<!-- MCP3204&#45;&gt;MCP3xxx -->
<g id="edge29" class="edge"><title>MCP3204&#45;&gt;MCP3xxx</title>
<path fill="none" stroke="black" d="M1641.16,-176.608C1638.24,-177.787 1635.32,-178.934 1632.5,-180 1591.81,-195.356 1544.44,-210.746 1511.86,-220.954"/>
<polygon fill="black" stroke="black" points="1510.75,-217.633 1502.24,-223.95 1512.83,-224.316 1510.75,-217.633"/>
</g>
<!-- MCP3208 -->
<g id="node34" class="node"><title>MCP3208</title>
<polygon fill="#2980b9" stroke="#2980b9" points="1385.5,-180 1323.5,-180 1323.5,-144 1385.5,-144 1385.5,-180"/>
<text text-anchor="middle" x="1354.5" y="-159.5" font-family="Sans" font-size="10.00" fill="#ffffff">MCP3208</text>
</g>
<!-- MCP3208&#45;&gt;MCP3xxx -->
<g id="edge30" class="edge"><title>MCP3208&#45;&gt;MCP3xxx</title>
<path fill="none" stroke="black" d="M1383.37,-180.124C1398.79,-189.276 1417.98,-200.658 1434.6,-210.515"/>
<polygon fill="black" stroke="black" points="1433.14,-213.718 1443.52,-215.81 1436.71,-207.698 1433.14,-213.718"/>
</g>
<!-- MCP3301 -->
<g id="node35" class="node"><title>MCP3301</title>
<polygon fill="#2980b9" stroke="#2980b9" points="1544.5,-108 1482.5,-108 1482.5,-72 1544.5,-72 1544.5,-108"/>
<text text-anchor="middle" x="1513.5" y="-87.5" font-family="Sans" font-size="10.00" fill="#ffffff">MCP3301</text>
</g>
<!-- MCP3301&#45;&gt;MCP33xx -->
<g id="edge31" class="edge"><title>MCP3301&#45;&gt;MCP33xx</title>
<path fill="none" stroke="black" d="M1493.72,-108.303C1483.75,-117.035 1471.49,-127.76 1460.64,-137.25"/>
<polygon fill="black" stroke="black" points="1458.27,-134.677 1453.05,-143.896 1462.88,-139.945 1458.27,-134.677"/>
</g>
<!-- MCP3302 -->
<g id="node36" class="node"><title>MCP3302</title>
<polygon fill="#2980b9" stroke="#2980b9" points="1384.5,-108 1322.5,-108 1322.5,-72 1384.5,-72 1384.5,-108"/>
<text text-anchor="middle" x="1353.5" y="-87.5" font-family="Sans" font-size="10.00" fill="#ffffff">MCP3302</text>
</g>
<!-- MCP3302&#45;&gt;MCP33xx -->
<g id="edge32" class="edge"><title>MCP3302&#45;&gt;MCP33xx</title>
<path fill="none" stroke="black" d="M1373.28,-108.303C1383.25,-117.035 1395.51,-127.76 1406.36,-137.25"/>
<polygon fill="black" stroke="black" points="1404.12,-139.945 1413.95,-143.896 1408.73,-134.677 1404.12,-139.945"/>
</g>
<!-- MCP3304 -->
<g id="node37" class="node"><title>MCP3304</title>
<polygon fill="#2980b9" stroke="#2980b9" points="1464.5,-108 1402.5,-108 1402.5,-72 1464.5,-72 1464.5,-108"/>
<text text-anchor="middle" x="1433.5" y="-87.5" font-family="Sans" font-size="10.00" fill="#ffffff">MCP3304</text>
</g>
<!-- MCP3304&#45;&gt;MCP33xx -->
<g id="edge33" class="edge"><title>MCP3304&#45;&gt;MCP33xx</title>
<path fill="none" stroke="black" d="M1433.5,-108.303C1433.5,-116.017 1433.5,-125.288 1433.5,-133.888"/>
<polygon fill="black" stroke="black" points="1430,-133.896 1433.5,-143.896 1437,-133.896 1430,-133.896"/>
</g>
<!-- LEDBoard -->
<g id="node38" class="node"><title>LEDBoard</title>
<polygon fill="#2980b9" stroke="#2980b9" points="1151.5,-180 1087.5,-180 1087.5,-144 1151.5,-144 1151.5,-180"/>
<text text-anchor="middle" x="1119.5" y="-159.5" font-family="Sans" font-size="10.00" fill="#ffffff">LEDBoard</text>
</g>
<!-- LEDBoard&#45;&gt;LEDCollection -->
<g id="edge38" class="edge"><title>LEDBoard&#45;&gt;LEDCollection</title>
<path fill="none" stroke="black" d="M1119.5,-180.303C1119.5,-188.017 1119.5,-197.288 1119.5,-205.888"/>
<polygon fill="black" stroke="black" points="1116,-205.896 1119.5,-215.896 1123,-205.896 1116,-205.896"/>
</g>
<!-- LEDBarGraph -->
<g id="node39" class="node"><title>LEDBarGraph</title>
<polygon fill="#2980b9" stroke="#2980b9" points="1031,-180 950,-180 950,-144 1031,-144 1031,-180"/>
<text text-anchor="middle" x="990.5" y="-159.5" font-family="Sans" font-size="10.00" fill="#ffffff">LEDBarGraph</text>
</g>
<!-- LEDBarGraph&#45;&gt;LEDCollection -->
<g id="edge39" class="edge"><title>LEDBarGraph&#45;&gt;LEDCollection</title>
<path fill="none" stroke="black" d="M1022.06,-180.124C1039.16,-189.404 1060.48,-200.975 1078.82,-210.925"/>
<polygon fill="black" stroke="black" points="1077.36,-214.117 1087.82,-215.81 1080.7,-207.965 1077.36,-214.117"/>
</g>
<!-- PiLiter -->
<g id="node40" class="node"><title>PiLiter</title>
<polygon fill="#2980b9" stroke="#2980b9" points="1277.5,-108 1223.5,-108 1223.5,-72 1277.5,-72 1277.5,-108"/>
<text text-anchor="middle" x="1250.5" y="-87.5" font-family="Sans" font-size="10.00" fill="#ffffff">PiLiter</text>
</g>
<!-- PiLiter&#45;&gt;LEDBoard -->
<g id="edge40" class="edge"><title>PiLiter&#45;&gt;LEDBoard</title>
<path fill="none" stroke="black" d="M1223.36,-105.504C1205.29,-115.158 1181.21,-128.025 1160.79,-138.938"/>
<polygon fill="black" stroke="black" points="1158.87,-135.996 1151.7,-143.796 1162.16,-142.17 1158.87,-135.996"/>
</g>
<!-- PiLiterBarGraph -->
<g id="node41" class="node"><title>PiLiterBarGraph</title>
<polygon fill="#2980b9" stroke="#2980b9" points="1025.5,-108 933.5,-108 933.5,-72 1025.5,-72 1025.5,-108"/>
<text text-anchor="middle" x="979.5" y="-87.5" font-family="Sans" font-size="10.00" fill="#ffffff">PiLiterBarGraph</text>
</g>
<!-- PiLiterBarGraph&#45;&gt;LEDBarGraph -->
<g id="edge41" class="edge"><title>PiLiterBarGraph&#45;&gt;LEDBarGraph</title>
<path fill="none" stroke="black" d="M982.219,-108.303C983.431,-116.017 984.888,-125.288 986.239,-133.888"/>
<polygon fill="black" stroke="black" points="982.802,-134.56 987.812,-143.896 989.717,-133.474 982.802,-134.56"/>
</g>
<!-- StatusZero -->
<g id="node42" class="node"><title>StatusZero</title>
<polygon fill="#2980b9" stroke="#2980b9" points="1115,-108 1044,-108 1044,-72 1115,-72 1115,-108"/>
<text text-anchor="middle" x="1079.5" y="-87.5" font-family="Sans" font-size="10.00" fill="#ffffff">StatusZero</text>
</g>
<!-- StatusZero&#45;&gt;LEDBoard -->
<g id="edge42" class="edge"><title>StatusZero&#45;&gt;LEDBoard</title>
<path fill="none" stroke="black" d="M1089.39,-108.303C1093.99,-116.356 1099.56,-126.106 1104.65,-135.018"/>
<polygon fill="black" stroke="black" points="1101.73,-136.95 1109.73,-143.896 1107.8,-133.477 1101.73,-136.95"/>
</g>
<!-- TrafficLights -->
<g id="node43" class="node"><title>TrafficLights</title>
<polygon fill="#2980b9" stroke="#2980b9" points="1205.5,-108 1133.5,-108 1133.5,-72 1205.5,-72 1205.5,-108"/>
<text text-anchor="middle" x="1169.5" y="-87.5" font-family="Sans" font-size="10.00" fill="#ffffff">TrafficLights</text>
</g>
<!-- TrafficLights&#45;&gt;LEDBoard -->
<g id="edge43" class="edge"><title>TrafficLights&#45;&gt;LEDBoard</title>
<path fill="none" stroke="black" d="M1157.14,-108.303C1151.27,-116.526 1144.13,-126.517 1137.66,-135.579"/>
<polygon fill="black" stroke="black" points="1134.68,-133.724 1131.72,-143.896 1140.38,-137.793 1134.68,-133.724"/>
</g>
<!-- PiTraffic -->
<g id="node44" class="node"><title>PiTraffic</title>
<polygon fill="#2980b9" stroke="#2980b9" points="1196.5,-36 1142.5,-36 1142.5,-0 1196.5,-0 1196.5,-36"/>
<text text-anchor="middle" x="1169.5" y="-15.5" font-family="Sans" font-size="10.00" fill="#ffffff">PiTraffic</text>
</g>
<!-- PiTraffic&#45;&gt;TrafficLights -->
<g id="edge44" class="edge"><title>PiTraffic&#45;&gt;TrafficLights</title>
<path fill="none" stroke="black" d="M1169.5,-36.3034C1169.5,-44.0173 1169.5,-53.2875 1169.5,-61.8876"/>
<polygon fill="black" stroke="black" points="1166,-61.8956 1169.5,-71.8957 1173,-61.8957 1166,-61.8956"/>
</g>
<!-- TrafficLightsBuzzer -->
<g id="node45" class="node"><title>TrafficLightsBuzzer</title>
<polygon fill="#2980b9" stroke="#2980b9" points="1284,-252 1179,-252 1179,-216 1284,-216 1284,-252"/>
<text text-anchor="middle" x="1231.5" y="-231.5" font-family="Sans" font-size="10.00" fill="#ffffff">TrafficLightsBuzzer</text>
</g>
<!-- TrafficLightsBuzzer&#45;&gt;CompositeOutputDevice -->
<g id="edge45" class="edge"><title>TrafficLightsBuzzer&#45;&gt;CompositeOutputDevice</title>
<path fill="none" stroke="black" d="M1204.1,-252.124C1189.59,-261.192 1171.58,-272.448 1155.91,-282.241"/>
<polygon fill="black" stroke="black" points="1153.63,-279.542 1147,-287.81 1157.34,-285.478 1153.63,-279.542"/>
</g>
<!-- StatusBoard -->
<g id="node46" class="node"><title>StatusBoard</title>
<polygon fill="#2980b9" stroke="#2980b9" points="1379,-252 1302,-252 1302,-216 1379,-216 1379,-252"/>
<text text-anchor="middle" x="1340.5" y="-231.5" font-family="Sans" font-size="10.00" fill="#ffffff">StatusBoard</text>
</g>
<!-- StatusBoard&#45;&gt;CompositeOutputDevice -->
<g id="edge46" class="edge"><title>StatusBoard&#45;&gt;CompositeOutputDevice</title>
<path fill="none" stroke="black" d="M1301.78,-248.876C1298.64,-249.949 1295.52,-251.002 1292.5,-252 1257.9,-263.422 1219.13,-275.375 1187.08,-285.032"/>
<polygon fill="black" stroke="black" points="1185.93,-281.723 1177.36,-287.953 1187.95,-288.427 1185.93,-281.723"/>
</g>
<!-- FishDish -->
<g id="node47" class="node"><title>FishDish</title>
<polygon fill="#2980b9" stroke="#2980b9" points="1305.5,-180 1249.5,-180 1249.5,-144 1305.5,-144 1305.5,-180"/>
<text text-anchor="middle" x="1277.5" y="-159.5" font-family="Sans" font-size="10.00" fill="#ffffff">FishDish</text>
</g>
<!-- FishDish&#45;&gt;TrafficLightsBuzzer -->
<g id="edge47" class="edge"><title>FishDish&#45;&gt;TrafficLightsBuzzer</title>
<path fill="none" stroke="black" d="M1266.13,-180.303C1260.78,-188.441 1254.3,-198.311 1248.39,-207.299"/>
<polygon fill="black" stroke="black" points="1245.31,-205.616 1242.74,-215.896 1251.16,-209.461 1245.31,-205.616"/>
</g>
<!-- TrafficHat -->
<g id="node48" class="node"><title>TrafficHat</title>
<polygon fill="#2980b9" stroke="#2980b9" points="1231,-180 1170,-180 1170,-144 1231,-144 1231,-180"/>
<text text-anchor="middle" x="1200.5" y="-159.5" font-family="Sans" font-size="10.00" fill="#ffffff">TrafficHat</text>
</g>
<!-- TrafficHat&#45;&gt;TrafficLightsBuzzer -->
<g id="edge48" class="edge"><title>TrafficHat&#45;&gt;TrafficLightsBuzzer</title>
<path fill="none" stroke="black" d="M1208.16,-180.303C1211.69,-188.272 1215.96,-197.9 1219.87,-206.736"/>
<polygon fill="black" stroke="black" points="1216.68,-208.169 1223.93,-215.896 1223.08,-205.335 1216.68,-208.169"/>
</g>
<!-- Robot -->
<g id="node49" class="node"><title>Robot</title>
<polygon fill="#2980b9" stroke="#2980b9" points="962.5,-324 908.5,-324 908.5,-288 962.5,-288 962.5,-324"/>
<text text-anchor="middle" x="935.5" y="-303.5" font-family="Sans" font-size="10.00" fill="#ffffff">Robot</text>
</g>
<!-- Robot&#45;&gt;SourceMixin -->
<g id="edge50" class="edge"><title>Robot&#45;&gt;SourceMixin</title>
<path fill="none" stroke="black" d="M962.506,-320.082C965.522,-321.445 968.565,-322.777 971.5,-324 989.816,-331.63 1035.32,-348.002 1070.7,-360.544"/>
<polygon fill="black" stroke="black" points="1069.79,-363.933 1080.38,-363.969 1072.12,-357.334 1069.79,-363.933"/>
</g>
<!-- Robot&#45;&gt;CompositeDevice -->
<g id="edge49" class="edge"><title>Robot&#45;&gt;CompositeDevice</title>
<path fill="none" stroke="black" d="M953.545,-324.303C962.562,-332.95 973.618,-343.551 983.443,-352.973"/>
<polygon fill="black" stroke="black" points="981.022,-355.501 990.663,-359.896 985.867,-350.448 981.022,-355.501"/>
</g>
<!-- Energenie -->
<g id="node50" class="node"><title>Energenie</title>
<polygon fill="#2980b9" stroke="#2980b9" points="1344,-324 1279,-324 1279,-288 1344,-288 1344,-324"/>
<text text-anchor="middle" x="1311.5" y="-303.5" font-family="Sans" font-size="10.00" fill="#ffffff">Energenie</text>
</g>
<!-- Energenie&#45;&gt;SourceMixin -->
<g id="edge52" class="edge"><title>Energenie&#45;&gt;SourceMixin</title>
<path fill="none" stroke="black" d="M1278.55,-320.517C1275.49,-321.714 1272.44,-322.891 1269.5,-324 1234.49,-337.181 1194.53,-351.069 1164.37,-361.321"/>
<polygon fill="black" stroke="black" points="1162.89,-358.128 1154.54,-364.652 1165.13,-364.758 1162.89,-358.128"/>
</g>
<!-- Energenie&#45;&gt;Device -->
<g id="edge51" class="edge"><title>Energenie&#45;&gt;Device</title>
<path fill="none" stroke="black" d="M1289.54,-324.304C1265.96,-342.671 1227.21,-372.261 1192.5,-396 1176.66,-406.833 1158.68,-418.174 1143.35,-427.572"/>
<polygon fill="black" stroke="black" points="1141.39,-424.671 1134.67,-432.863 1145.03,-430.649 1141.39,-424.671"/>
</g>
<!-- RyanteckRobot -->
<g id="node51" class="node"><title>RyanteckRobot</title>
<polygon fill="#2980b9" stroke="#2980b9" points="1060.5,-252 974.5,-252 974.5,-216 1060.5,-216 1060.5,-252"/>
<text text-anchor="middle" x="1017.5" y="-231.5" font-family="Sans" font-size="10.00" fill="#ffffff">RyanteckRobot</text>
</g>
<!-- RyanteckRobot&#45;&gt;Robot -->
<g id="edge53" class="edge"><title>RyanteckRobot&#45;&gt;Robot</title>
<path fill="none" stroke="black" d="M997.23,-252.303C987.002,-261.035 974.439,-271.76 963.322,-281.25"/>
<polygon fill="black" stroke="black" points="960.87,-278.741 955.537,-287.896 965.415,-284.065 960.87,-278.741"/>
</g>
<!-- CamJamKitRobot -->
<g id="node52" class="node"><title>CamJamKitRobot</title>
<polygon fill="#2980b9" stroke="#2980b9" points="956.5,-252 860.5,-252 860.5,-216 956.5,-216 956.5,-252"/>
<text text-anchor="middle" x="908.5" y="-231.5" font-family="Sans" font-size="10.00" fill="#ffffff">CamJamKitRobot</text>
</g>
<!-- CamJamKitRobot&#45;&gt;Robot -->
<g id="edge54" class="edge"><title>CamJamKitRobot&#45;&gt;Robot</title>
<path fill="none" stroke="black" d="M915.174,-252.303C918.215,-260.187 921.883,-269.696 925.261,-278.454"/>
<polygon fill="black" stroke="black" points="922.038,-279.825 928.903,-287.896 928.569,-277.306 922.038,-279.825"/>
</g>
<!-- Motor -->
<g id="node53" class="node"><title>Motor</title>
<polygon fill="#2980b9" stroke="#2980b9" points="1034.5,-324 980.5,-324 980.5,-288 1034.5,-288 1034.5,-324"/>
<text text-anchor="middle" x="1007.5" y="-303.5" font-family="Sans" font-size="10.00" fill="#ffffff">Motor</text>
</g>
<!-- Motor&#45;&gt;SourceMixin -->
<g id="edge56" class="edge"><title>Motor&#45;&gt;SourceMixin</title>
<path fill="none" stroke="black" d="M1034.41,-324.124C1048.66,-333.192 1066.35,-344.448 1081.74,-354.241"/>
<polygon fill="black" stroke="black" points="1080.17,-357.394 1090.49,-359.81 1083.93,-351.489 1080.17,-357.394"/>
</g>
<!-- Motor&#45;&gt;CompositeDevice -->
<g id="edge55" class="edge"><title>Motor&#45;&gt;CompositeDevice</title>
<path fill="none" stroke="black" d="M1007.75,-324.303C1007.86,-332.017 1007.99,-341.288 1008.11,-349.888"/>
<polygon fill="black" stroke="black" points="1004.61,-349.947 1008.26,-359.896 1011.61,-349.847 1004.61,-349.947"/>
</g>
<!-- TimeOfDay -->
<g id="node54" class="node"><title>TimeOfDay</title>
<polygon fill="#2980b9" stroke="#2980b9" points="905,-180 836,-180 836,-144 905,-144 905,-180"/>
<text text-anchor="middle" x="870.5" y="-159.5" font-family="Sans" font-size="10.00" fill="#ffffff">TimeOfDay</text>
</g>
<!-- TimeOfDay&#45;&gt;InternalDevice -->
<g id="edge59" class="edge"><title>TimeOfDay&#45;&gt;InternalDevice</title>
<path fill="none" stroke="black" d="M852.949,-180.303C844.266,-188.865 833.637,-199.344 824.152,-208.696"/>
<polygon fill="black" stroke="black" points="821.512,-206.383 816.849,-215.896 826.427,-211.367 821.512,-206.383"/>
</g>
<!-- PingServer -->
<g id="node55" class="node"><title>PingServer</title>
<polygon fill="#2980b9" stroke="#2980b9" points="817.5,-180 749.5,-180 749.5,-144 817.5,-144 817.5,-180"/>
<text text-anchor="middle" x="783.5" y="-159.5" font-family="Sans" font-size="10.00" fill="#ffffff">PingServer</text>
</g>
<!-- PingServer&#45;&gt;InternalDevice -->
<g id="edge60" class="edge"><title>PingServer&#45;&gt;InternalDevice</title>
<path fill="none" stroke="black" d="M787.455,-180.303C789.218,-188.017 791.337,-197.288 793.303,-205.888"/>
<polygon fill="black" stroke="black" points="789.95,-206.927 795.59,-215.896 796.774,-205.367 789.95,-206.927"/>
</g>
</g>
</svg>
